<?xml version="1.0" encoding="UTF-8" standalone="no"?>
<!-- Created with Inkscape (http://www.inkscape.org/) -->

<svg
   version="1.1"
   id="svg3029"
   width="880"
   height="880"
   viewBox="0 0 880 880"
   sodipodi:docname="river-nature-publicdomainvectors.org.svg"
   inkscape:version="1.2 (dc2aedaf03, 2022-05-15)"
   xmlns:inkscape="http://www.inkscape.org/namespaces/inkscape"
   xmlns:sodipodi="http://sodipodi.sourceforge.net/DTD/sodipodi-0.dtd"
   xmlns="http://www.w3.org/2000/svg"
   xmlns:svg="http://www.w3.org/2000/svg">
  <defs
     id="defs3033">
    <clipPath
       clipPathUnits="userSpaceOnUse"
       id="clipPath3047">
      <path
         d="M 0,660 H 660 V 0 H 0 Z"
         id="path3045" />
    </clipPath>
  </defs>
  <sodipodi:namedview
     id="namedview3031"
     pagecolor="#ffffff"
     bordercolor="#000000"
     borderopacity="0.25"
     inkscape:showpageshadow="2"
     inkscape:pageopacity="0.0"
     inkscape:pagecheckerboard="0"
     inkscape:deskcolor="#d1d1d1"
     showgrid="false"
     inkscape:zoom="0.95113636"
     inkscape:cx="440.52569"
     inkscape:cy="440.52569"
     inkscape:window-width="1920"
     inkscape:window-height="1017"
     inkscape:window-x="-8"
     inkscape:window-y="-8"
     inkscape:window-maximized="1"
     inkscape:current-layer="g3037">
    <inkscape:page
       x="0"
       y="0"
       id="page3035"
       width="880"
       height="880" />
  </sodipodi:namedview>
  <g
     id="g3037"
     inkscape:groupmode="layer"
     inkscape:label="Page 1"
     transform="matrix(1.3333333,0,0,-1.3333333,0,880)">
    <path
       d="M 3.38,1.948 H 659.999 V 660 H 3.38 Z"
       style="fill:#7ea3d5;fill-opacity:1;fill-rule:nonzero;stroke:none"
       id="path3039" />
    <g
       id="g3041">
      <g
         id="g3043"
         clip-path="url(#clipPath3047)">
        <g
           id="g3049"
           transform="translate(556.1895,170.1221)">
          <path
             d="m 0,0 c -8.055,0 -14.584,-3.126 -14.584,-6.982 0,-3.854 6.529,-6.98 14.584,-6.98 8.054,0 14.584,3.126 14.584,6.98 C 14.584,-3.126 8.054,0 0,0 m -63.198,42.878 c -9.362,0 -16.951,-3.126 -16.951,-6.982 0,-3.854 7.589,-6.98 16.951,-6.98 9.363,0 16.953,3.126 16.953,6.98 0,3.856 -7.59,6.982 -16.953,6.982 M -175.134,-1.498 c -19.963,0 -36.148,-4.689 -36.148,-10.471 0,-5.784 16.185,-10.472 36.148,-10.472 19.964,0 36.15,4.688 36.15,10.472 0,5.782 -16.186,10.471 -36.15,10.471 m -143.347,46.869 c -11.016,0 -19.945,-3.349 -19.945,-7.479 0,-4.132 8.929,-7.479 19.945,-7.479 11.014,0 19.943,3.347 19.943,7.479 0,4.13 -8.929,7.479 -19.943,7.479 m -210.413,4.487 c -7.71,0 -13.961,-3.013 -13.961,-6.73 0,-3.717 6.251,-6.732 13.961,-6.732 7.71,0 13.96,3.015 13.96,6.732 0,3.717 -6.25,6.73 -13.96,6.73 M 105.244,10.66 V -2.779 C 104.46,-3.067 103.685,-3.363 102.92,-3.667 78.691,-13.273 83.002,1.638 60.187,4.962 52.339,6.105 9.436,4.106 -4.466,4.275 c -43.621,0.533 -80.876,6.523 -123.43,6.008 -32.062,-0.423 -65.83,0.416 -97.065,-4.57 -51.776,-8.268 -98.272,-16.89 -152.06,-20.859 -35.388,-2.312 -77.099,-4.568 -112.457,-4.805 -14.671,0.051 -38.84,0.539 -63.33,1.497 v 41.699 c 4.19,0.451 8.654,0.937 13.452,1.451 15.85,1.763 30.231,3.95 45.724,6.742 l 2.849,0.494 c 30.065,5.2 44.55,3.79 74.799,-1.298 12.648,-2.159 25.215,-4.599 37.822,-6.723 92.537,-15.592 129.315,26.894 187.994,13.387 31.174,-7.178 28.923,-8.466 63.968,-10.143 29.34,-1.492 54.362,-5.846 84.014,-4.429 32.573,1.558 47.055,2.255 69.252,18.73 26.587,19.73 37.045,-7.593 53.82,-21.165 6.022,-4.874 14.483,-7.898 24.358,-9.631"
             style="fill:#9cbde7;fill-opacity:1;fill-rule:evenodd;stroke:none"
             id="path3051" />
        </g>
        <g
           id="g3053"
           transform="translate(661.4336,263.0234)">
          <path
             d="m 0,0 v -57.467 c -0.949,0.91 -1.918,1.903 -2.912,3.002 -22.196,24.598 -36.679,25.642 -69.254,27.966 -29.649,2.116 -54.674,-4.384 -84.013,-6.612 -35.045,-2.506 -32.793,-4.431 -63.968,-15.145 -58.679,-20.168 -95.456,43.269 -187.993,19.987 -12.607,-3.17 -25.175,-6.811 -37.822,-10.038 -30.25,-7.597 -44.735,-9.703 -74.8,-1.936 l -2.848,0.737 c -15.494,4.169 -29.874,7.434 -45.724,10.066 -48.057,7.702 -63.584,11.118 -88.718,1.828 v 53.96 c 1.406,0.384 2.732,0.72 3.966,1.003 28.557,6.563 103.277,9.715 134.63,9.878 35.357,-0.354 77.068,-3.724 112.456,-7.178 53.788,-5.924 100.283,-18.798 152.06,-31.145 31.236,-7.448 65.003,-6.191 97.066,-6.824 42.553,-0.77 79.809,8.177 123.428,8.972 C -27.521,1.179 -13.4,0.502 0,0"
             style="fill:#668dbd;fill-opacity:1;fill-rule:evenodd;stroke:none"
             id="path3055" />
        </g>
        <path
           d="M 3.38,292.01 H 661.433 V 660 H 3.38 Z"
           style="fill:#c0ddf4;fill-opacity:1;fill-rule:evenodd;stroke:none"
           id="path3057" />
        <g
           id="g3059"
           transform="translate(661.4336,533.6504)">
          <path
             d="m 0,0 v -152.572 c -0.387,-0.011 -0.774,-0.018 -1.164,-0.018 -5.843,0 -11.401,1.22 -16.437,3.418 -0.689,-0.837 -1.408,-1.649 -2.157,-2.435 2.858,-4.973 4.49,-10.739 4.49,-16.886 0,-18.754 -15.203,-33.957 -33.958,-33.957 -14.099,0 -26.191,8.594 -31.325,20.83 -2.58,-0.579 -5.264,-0.886 -8.017,-0.886 -20.157,0 -36.498,16.341 -36.498,36.496 0,1.165 0.057,2.318 0.164,3.454 -8.445,3.223 -15.714,8.823 -20.991,15.982 -6.138,-2.625 -12.897,-4.077 -19.996,-4.077 -13.018,0 -24.893,4.887 -33.897,12.926 3.749,-6.079 5.912,-13.238 5.912,-20.903 0,-22.032 -17.858,-39.889 -39.886,-39.889 -17.232,0 -31.911,10.925 -37.488,26.227 -1.56,-0.196 -3.149,-0.3 -4.762,-0.3 -14.926,0 -27.814,8.712 -33.86,21.33 -8.013,-12.243 -21.848,-20.333 -37.572,-20.333 -19.043,0 -35.313,11.863 -41.83,28.599 -1.18,-0.401 -2.379,-0.757 -3.597,-1.071 0.166,-1.553 0.254,-3.131 0.254,-4.728 0,-24.287 -19.689,-43.977 -43.977,-43.977 -18.333,0 -34.044,11.221 -40.647,27.167 -8.235,0.427 -15.63,4.029 -20.989,9.6 -4.924,-4.841 -10.902,-8.615 -17.559,-10.945 -2.5,-20.047 -19.597,-35.558 -40.32,-35.558 -22.443,0 -40.636,18.195 -40.636,40.636 0,0.291 0.004,0.578 0.011,0.867 -3.645,-1.05 -7.496,-1.615 -11.48,-1.615 h -0.057 c 0.036,-0.839 0.057,-1.681 0.057,-2.529 0,-29.942 -21.461,-54.869 -49.84,-60.248 V -52.09 c 2.682,0.789 5.52,1.215 8.457,1.215 10.072,0 18.983,-4.979 24.404,-12.608 5.181,2.334 10.929,3.633 16.979,3.633 14.885,0 27.934,-7.861 35.225,-19.655 8.046,14.673 23.636,24.624 41.552,24.624 10.289,0 19.81,-3.283 27.578,-8.856 -1.302,4.362 -2.005,8.983 -2.005,13.769 0,26.559 21.531,48.09 48.091,48.09 17.673,0 33.117,-9.537 41.475,-23.741 3.467,0.75 7.065,1.149 10.756,1.149 12.743,0 24.383,-4.712 33.278,-12.487 0.927,22.209 19.221,39.931 41.658,39.931 21.435,0 39.09,-16.175 41.433,-36.984 10.987,-1.057 20.487,-7.203 26.116,-16.054 8.469,10.228 21.262,16.743 35.577,16.743 10.17,0 19.57,-3.29 27.2,-8.861 9.059,8.302 21.131,13.37 34.389,13.37 5.833,0 11.434,-0.982 16.655,-2.789 6.947,11.42 19.509,19.047 33.856,19.047 11.277,0 21.453,-4.714 28.668,-12.279 C -76.6,-4.811 -55.848,8.921 -31.885,8.921 -20.209,8.921 -9.294,5.659 0,0"
             style="fill:#f8fcfe;fill-opacity:1;fill-rule:evenodd;stroke:none"
             id="path3061" />
        </g>
        <g
           id="g3063"
           transform="translate(661.4336,459.7856)">
          <path
             d="m 0,0 v -152.573 c -9.294,-5.659 -20.209,-8.92 -31.885,-8.92 -23.963,0 -44.715,13.733 -54.825,33.755 -7.215,-7.567 -17.391,-12.28 -28.668,-12.28 -14.347,0 -26.909,7.627 -33.856,19.046 -5.221,-1.806 -10.822,-2.788 -16.655,-2.788 -13.258,0 -25.33,5.069 -34.389,13.369 -7.63,-5.57 -17.03,-8.86 -27.2,-8.86 -14.315,0 -27.108,6.516 -35.577,16.742 -5.629,-8.849 -15.129,-14.996 -26.116,-16.052 -2.343,-20.81 -19.998,-36.985 -41.433,-36.985 -22.437,0 -40.731,17.722 -41.658,39.93 -8.895,-7.774 -20.535,-12.486 -33.278,-12.486 -3.691,0 -7.289,0.398 -10.756,1.149 -8.358,-14.205 -23.802,-23.742 -41.475,-23.742 -26.56,0 -48.091,21.532 -48.091,48.092 0,4.784 0.703,9.407 2.005,13.768 -7.768,-5.572 -17.289,-8.855 -27.578,-8.855 -17.916,0 -33.506,9.949 -41.552,24.623 -7.291,-11.793 -20.34,-19.655 -35.225,-19.655 -6.05,0 -11.798,1.3 -16.979,3.634 -5.421,-7.63 -14.332,-12.61 -24.404,-12.61 -2.937,0 -5.775,0.427 -8.457,1.216 v 57.403 c 2.682,0.788 5.52,1.213 8.457,1.213 0.364,0 0.725,-0.008 1.085,-0.021 4.276,18.302 20.695,31.933 40.298,31.933 3.984,0 7.835,-0.564 11.48,-1.615 -0.007,0.288 -0.011,0.577 -0.011,0.867 0,22.443 18.193,40.636 40.636,40.636 20.723,0 37.82,-15.511 40.32,-35.558 18.466,-6.463 31.71,-24.036 31.71,-44.707 0,-4.628 -0.665,-9.098 -1.902,-13.324 7.923,5.749 17.669,9.141 28.208,9.141 2.343,0 4.647,-0.17 6.901,-0.495 8.282,16.656 25.468,28.101 45.33,28.101 5.691,0 11.163,-0.938 16.268,-2.671 6.517,16.738 22.787,28.6 41.83,28.6 15.724,0 29.559,-8.09 37.572,-20.334 6.046,12.618 18.934,21.331 33.86,21.331 1.613,0 3.202,-0.103 4.762,-0.3 5.577,15.301 20.256,26.227 37.488,26.227 22.028,0 39.886,-17.858 39.886,-39.888 0,-7.667 -2.163,-14.824 -5.912,-20.905 9.004,8.038 20.879,12.927 33.897,12.927 7.099,0 13.858,-1.453 19.996,-4.078 5.277,7.161 12.546,12.761 20.991,15.982 -0.107,1.138 -0.164,2.289 -0.164,3.455 0,20.155 16.341,36.496 36.498,36.496 2.753,0 5.437,-0.306 8.017,-0.885 5.134,12.234 17.226,20.829 31.325,20.829 18.755,0 33.958,-15.203 33.958,-33.957 0,-6.148 -1.632,-11.913 -4.49,-16.886 0.749,-0.785 1.468,-1.598 2.157,-2.436 5.036,2.198 10.594,3.419 16.437,3.419 C -0.774,0.018 -0.387,0.012 0,0"
             style="fill:#daeefa;fill-opacity:1;fill-rule:evenodd;stroke:none"
             id="path3065" />
        </g>
        <g
           id="g3067"
           transform="translate(169.6548,355.7456)">
          <path
             d="m 0,0 c 30.857,28.363 46.367,10.191 35.895,-44.254 h -202.168 v 67.746 c 6.867,1.651 15.977,-0.931 26.885,-8.461 -1.203,48.409 18.573,59.597 40.209,35.042 7.976,55.18 58.762,46.802 69.953,-12.535 C -5.849,63.482 11.745,51.761 0,0"
             style="fill:#769a2a;fill-opacity:1;fill-rule:evenodd;stroke:none"
             id="path3069" />
        </g>
        <g
           id="g3071"
           transform="translate(325.8623,328.1064)">
          <path
             d="m 0,0 c 14.939,14.957 23.278,8.127 22.6,-16.615 h -144.491 c -4.494,30.213 3.556,41.183 21.424,24.236 -1.982,39.474 15.153,57.685 35.329,31.907 6.353,41.015 35.574,29.072 35.169,-3.764 C -9.168,54.019 6.291,34.14 0,0"
             style="fill:#769a2a;fill-opacity:1;fill-rule:evenodd;stroke:none"
             id="path3073" />
        </g>
        <g
           id="g3075"
           transform="translate(598.6377,382.6055)">
          <path
             d="m 0,0 c 9.446,30.7 32.667,23.943 26.577,-16.492 16.171,15.596 29.182,14.21 36.219,1.781 V -71.114 H -92.592 c -5.553,29.762 8.75,60.568 36.728,37.033 -10.416,28.03 -3.919,35.642 16.135,24.807 C -64.149,48.096 -3.084,57.706 0,0"
             style="fill:#769a2a;fill-opacity:1;fill-rule:evenodd;stroke:none"
             id="path3077" />
        </g>
        <g
           id="g3079"
           transform="translate(480.1289,341.6851)">
          <path
             d="m 0,0 c 3.905,29.53 -8.363,47.724 -31.178,28.072 2.964,61.725 -60.646,65.875 -62.487,5.885 -25.317,34.654 -54.771,16.692 -54.713,-37.93 -12.305,7.787 -20.122,0.281 -23.175,-16.338 -10.986,21.491 -25.31,11.483 -33.901,-9.883 H 42.738 C 39.76,8.265 23.071,29.929 0,0"
             style="fill:#769a2a;fill-opacity:1;fill-rule:evenodd;stroke:none"
             id="path3081" />
        </g>
        <path
           d="m 3.38,250.661 h 658.053 v 60.83 H 3.38 Z"
           style="fill:#adda1a;fill-opacity:1;fill-rule:evenodd;stroke:none"
           id="path3083" />
        <g
           id="g3085"
           transform="translate(196.9888,312.7012)">
          <path
             d="M 0,0 C -17.985,16.532 -27.025,5.939 -20.922,-25.797 H 101.01 C 111.545,6.861 101.925,23.032 81.248,8.761 81.949,36.977 70.422,43.497 57.811,29.185 53.162,61.349 23.559,56.465 17.036,21.878 3.41,37.002 -6.846,30.169 0,0"
             style="fill:#9ac421;fill-opacity:1;fill-rule:evenodd;stroke:none"
             id="path3087" />
        </g>
        <g
           id="g3089"
           transform="translate(505.1416,300.6738)">
          <path
             d="M 0,0 C -12.379,12.394 -19.29,6.735 -18.727,-13.77 H 101.011 C 104.735,11.269 98.064,20.359 83.256,6.315 84.9,39.028 70.7,54.119 53.98,32.756 48.715,66.747 24.5,56.849 24.834,29.637 7.598,44.766 -5.213,28.29 0,0"
             style="fill:#9ac421;fill-opacity:1;fill-rule:evenodd;stroke:none"
             id="path3091" />
        </g>
        <g
           id="g3093"
           transform="translate(105.7729,356.1855)">
          <path
             d="m 0,0 c -9.201,29.906 -31.823,23.323 -25.89,-16.068 -29.989,28.923 -48.837,-2.079 -37.58,-53.213 H 90.203 c 5.41,28.994 -8.525,59.007 -35.78,36.077 C 64.571,-5.898 58.242,1.519 38.705,-9.037 62.496,46.855 3.004,56.216 0,0"
             style="fill:#9ac421;fill-opacity:1;fill-rule:evenodd;stroke:none"
             id="path3095" />
        </g>
        <g
           id="g3097"
           transform="translate(450.7715,307.291)">
          <path
             d="m 0,0 c 2.636,19.94 -5.648,32.224 -21.052,18.956 2.001,41.675 -40.948,44.478 -42.191,3.973 -17.095,23.398 -36.983,11.27 -36.943,-25.612 -8.307,5.259 -13.585,0.192 -15.647,-11.03 -7.419,14.51 -17.09,7.753 -22.891,-6.674 H 28.856 C 26.845,5.58 15.576,20.209 0,0"
             style="fill:#9ac421;fill-opacity:1;fill-rule:evenodd;stroke:none"
             id="path3099" />
        </g>
        <g
           id="g3101"
           transform="translate(333.0283,300.9658)">
          <path
             d="M 0,0 C 17.985,16.532 27.025,5.94 20.923,-25.795 H -101.01 c -10.535,32.657 -0.915,48.829 19.763,34.557 -0.702,28.218 10.825,34.738 23.436,20.425 4.649,32.165 34.252,27.281 40.775,-7.306 C -3.41,37.003 6.846,30.171 0,0 m 182.525,-12.025 c 12.379,12.393 19.291,6.734 18.727,-13.77 H 81.515 c -3.725,25.039 2.947,34.13 17.755,20.085 -1.645,32.711 12.555,47.802 29.276,26.439 5.264,33.991 29.479,24.093 29.143,-3.117 17.237,15.128 30.049,-1.347 24.836,-29.637 m 90.709,24.526 c 5.087,16.532 17.591,12.894 14.313,-8.882 16.576,15.988 26.994,-1.148 20.771,-29.414 h -84.945 c -2.991,16.027 4.711,32.617 19.778,19.942 -5.611,15.095 -2.111,19.195 8.688,13.358 -13.152,30.896 19.735,36.071 21.395,4.996 m -550.45,-17.909 c -2.636,19.937 5.648,32.224 21.051,18.954 -2.001,41.677 40.949,44.478 42.191,3.974 17.095,23.398 36.981,11.272 36.943,-25.611 8.308,5.259 13.586,0.191 15.647,-11.032 7.419,14.512 17.09,7.755 22.89,-6.672 h -167.578 c 2.01,25.967 13.279,40.594 28.856,20.387"
             style="fill:#d7eb65;fill-opacity:1;fill-rule:evenodd;stroke:none"
             id="path3103" />
        </g>
        <g
           id="g3105"
           transform="translate(563.998,605.9507)">
          <path
             d="m 0,0 c 11.941,0 21.623,-9.68 21.623,-21.622 0,-11.94 -9.682,-21.62 -21.623,-21.62 -3.229,0 -6.294,0.709 -9.048,1.98 -6.3,-9.285 -16.94,-15.386 -29.006,-15.386 -10.496,0 -19.915,4.619 -26.334,11.935 -5.008,-3.954 -11.331,-6.313 -18.206,-6.313 -16.24,0 -29.406,13.165 -29.406,29.404 0,16.241 13.166,29.406 29.406,29.406 6.875,0 13.198,-2.36 18.206,-6.313 6.419,7.316 15.838,11.936 26.334,11.936 12.066,0 22.706,-6.102 29.006,-15.387 C -6.294,-0.709 -3.229,0 0,0"
             style="fill:#f8fcfe;fill-opacity:1;fill-rule:evenodd;stroke:none"
             id="path3107" />
        </g>
        <g
           id="g3109"
           transform="translate(118.7017,582.2339)">
          <path
             d="m 0,0 c 11.382,0 20.609,-9.227 20.609,-20.609 0,-11.383 -9.227,-20.61 -20.609,-20.61 -3.387,0 -6.581,0.817 -9.4,2.264 -5.285,-6.393 -13.276,-10.468 -22.218,-10.468 -10.348,0 -19.419,5.456 -24.501,13.647 -2.704,-1.661 -5.886,-2.619 -9.293,-2.619 -9.822,0 -17.786,7.963 -17.786,17.786 0,9.822 7.964,17.785 17.786,17.785 3.407,0 6.589,-0.958 9.293,-2.619 5.082,8.19 14.153,13.647 24.501,13.647 8.942,0 16.933,-4.074 22.218,-10.467 C -6.581,-0.817 -3.387,0 0,0"
             style="fill:#f8fcfe;fill-opacity:1;fill-rule:evenodd;stroke:none"
             id="path3111" />
        </g>
        <g
           id="g3113"
           transform="translate(245.4346,624.3423)">
          <path
             d="M 0,0 C 0.224,0 0.446,-0.005 0.668,-0.014 7,11.86 19.508,19.943 33.905,19.943 c 11.047,0 20.983,-4.757 27.868,-12.337 4.275,2.457 9.23,3.862 14.513,3.862 10.229,0 19.223,-5.265 24.43,-13.232 2.003,0.815 4.191,1.265 6.482,1.265 9.502,0 17.203,-7.701 17.203,-17.202 0,-9.5 -7.701,-17.201 -17.203,-17.201 -2.291,0 -4.479,0.45 -6.482,1.265 -5.207,-7.967 -14.201,-13.232 -24.43,-13.232 -5.283,0 -10.238,1.405 -14.513,3.861 C 54.888,-50.587 44.952,-55.345 33.905,-55.345 19.508,-55.345 7,-47.262 0.668,-35.387 0.446,-35.396 0.224,-35.401 0,-35.401 c -9.776,0 -17.7,7.924 -17.7,17.7 C -17.7,-7.924 -9.776,0 0,0"
             style="fill:#f8fcfe;fill-opacity:1;fill-rule:evenodd;stroke:none"
             id="path3115" />
        </g>
        <g
           id="g3117"
           transform="translate(110.4395,118.4697)">
          <path
             d="m 0,0 c 15.295,14.059 24.731,10.356 25.189,-8.086 2.469,1.066 6.072,-0.414 10.7,-4.803 -1.277,25.417 9.757,37.141 22.747,20.543 4.091,26.409 22.906,18.719 22.645,-2.423 11.751,10.313 20.854,1.722 20.172,-15.388 0.923,-0.327 1.895,-0.808 2.914,-1.454 -0.036,35.172 18.927,46.734 35.229,24.422 1.185,38.626 42.142,35.952 40.234,-3.789 14.688,12.653 22.588,0.939 20.074,-18.076 12.829,16.644 22.592,8.507 26.25,-9.971 -0.522,12.817 5.11,15.919 14.66,7.139 -4.408,19.427 2.196,23.825 10.968,14.088 4.201,22.271 23.261,25.414 26.255,4.706 6.296,7.145 12.17,6.223 14.283,-3.015 3.928,10.444 12.78,12.794 24.102,1.876 -3.82,25.361 10.745,29.601 16.669,10.345 1.934,36.196 40.239,30.167 24.922,-5.819 12.579,6.798 16.654,2.022 10.12,-15.56 6.132,5.16 11.217,6.153 15.09,4.468 4.367,10.042 13.141,10.949 21,0.192 0.8,26.081 28.454,24.276 27.165,-2.558 9.919,8.544 15.252,0.635 13.554,-12.204 2.441,3.167 4.718,5.003 6.785,5.729 3.181,9.909 11.165,14.832 22.867,4.988 -6.708,18.048 -2.526,22.95 10.387,15.972 -15.724,36.942 23.596,43.128 25.581,5.973 6.081,19.766 21.034,15.416 17.112,-10.619 10.412,10.042 18.789,9.149 23.32,1.145 V -116.522 H -107.058 V 15.125 c 4.421,1.065 10.287,-0.599 17.31,-5.445 -0.774,31.168 11.959,38.371 25.89,22.56 5.135,35.53 37.835,30.134 45.041,-8.069 C -3.766,40.875 7.562,33.328 0,0"
             style="fill:#cbe538;fill-opacity:1;fill-rule:evenodd;stroke:none"
             id="path3119" />
        </g>
        <g
           id="g3121"
           transform="translate(554.375,62.627)">
          <path
             d="m 0,0 c -15.294,14.058 -24.731,10.356 -25.19,-8.086 -2.466,1.065 -6.072,-0.414 -10.699,-4.805 1.276,25.418 -9.756,37.143 -22.747,20.545 -4.09,26.408 -22.906,18.719 -22.644,-2.423 -11.751,10.313 -20.855,1.721 -20.173,-15.389 -0.924,-0.326 -1.895,-0.809 -2.914,-1.453 0.036,35.17 -18.928,46.734 -35.23,24.422 -1.184,38.626 -42.141,35.952 -40.232,-3.79 -14.689,12.654 -22.588,0.938 -20.075,-18.076 -12.829,16.645 -22.592,8.506 -26.252,-9.972 0.524,12.819 -5.108,15.919 -14.659,7.141 4.409,19.427 -2.195,23.825 -10.968,14.088 -4.2,22.269 -23.26,25.414 -26.254,4.704 -6.295,7.145 -12.17,6.225 -14.283,-3.015 -3.928,10.446 -12.78,12.796 -24.102,1.878 3.82,25.361 -10.746,29.599 -16.67,10.343 -1.933,36.196 -40.238,30.169 -24.92,-5.818 -12.579,6.799 -16.654,2.021 -10.12,-15.561 -6.133,5.16 -11.217,6.154 -15.09,4.468 -4.367,10.042 -13.141,10.949 -21.001,0.194 -0.8,26.079 -28.453,24.274 -27.165,-2.558 -9.918,8.542 -15.252,0.633 -13.554,-12.205 -2.442,3.166 -4.718,5.002 -6.784,5.728 -3.181,9.911 -11.165,14.834 -22.867,4.99 6.708,18.046 2.524,22.95 -10.388,15.972 15.723,36.94 -23.595,43.126 -25.581,5.972 -6.082,19.767 -21.032,15.416 -17.112,-10.618 -10.411,10.04 -18.788,9.149 -23.32,1.144 v -68.5 H 107.059 V 15.125 C 102.638,16.188 96.771,14.526 89.749,9.679 90.523,40.848 77.79,48.049 63.857,32.239 58.723,67.77 26.024,62.374 18.818,24.169 3.766,40.873 -7.562,33.326 0,0"
             style="fill:#dfec4e;fill-opacity:1;fill-rule:evenodd;stroke:none"
             id="path3123" />
        </g>
      </g>
    </g>
  </g>
</svg>
