<?xml version="1.0" standalone="no"?>
<!DOCTYPE svg PUBLIC "-//W3C//DTD SVG 20010904//EN"
 "http://www.w3.org/TR/2001/REC-SVG-20010904/DTD/svg10.dtd">
<svg version="1.0" xmlns="http://www.w3.org/2000/svg"
 width="307.000000pt" height="105.000000pt" viewBox="0 0 307.000000 105.000000"
 preserveAspectRatio="xMidYMid meet">

<g transform="translate(0.000000,105.000000) scale(0.100000,-0.100000)"
fill="#000000" stroke="none">
<path d="M508 983 c-3 -23 -10 -28 -60 -39 -171 -39 -300 -169 -331 -335 -11
-58 -12 -59 -44 -59 -26 0 -33 -4 -33 -20 0 -16 7 -20 34 -20 33 0 34 -1 41
-49 22 -161 167 -309 337 -342 55 -11 58 -13 58 -40 0 -22 5 -29 20 -29 15 0
20 7 20 29 0 31 4 34 75 46 58 10 148 61 199 113 52 53 101 140 111 197 12 71
15 75 46 75 22 0 29 5 29 20 0 15 -7 20 -29 20 -31 0 -34 4 -46 75 -10 60 -71
168 -120 214 -54 50 -149 97 -216 106 -46 6 -49 9 -49 36 0 40 -37 42 -42 2z
m-3 -98 c0 -27 -82 -49 -127 -33 -28 10 -29 12 -12 21 26 15 105 36 124 34 8
-1 15 -11 15 -22z m123 10 c61 -18 72 -32 39 -44 -37 -14 -111 10 -115 38 -4
25 7 26 76 6z m-258 -55 c8 -5 12 -10 10 -12 -3 -2 -25 -17 -48 -33 -57 -38
-102 -105 -122 -180 -13 -50 -19 -61 -39 -63 -23 -4 -24 -2 -17 40 10 68 61
160 115 212 50 46 73 54 101 36z m419 -39 c57 -58 101 -142 109 -206 4 -41 3
-45 -17 -45 -14 0 -22 8 -27 28 -25 113 -70 182 -156 237 -33 20 -28 35 12 35
21 0 42 -13 79 -49z m-200 17 c15 -9 17 -15 7 -30 -9 -15 -8 -21 4 -28 13 -8
13 -11 0 -24 -13 -13 -17 -12 -33 9 -17 23 -16 25 5 45 12 11 17 20 11 20 -5
0 -18 -9 -28 -20 -10 -11 -22 -20 -26 -20 -14 0 -59 47 -52 53 11 12 92 8 112
-5z m-108 -27 c21 -17 22 -21 10 -44 -8 -15 -19 -23 -27 -20 -16 6 -19 29 -4
38 11 7 2 35 -12 35 -5 0 -7 -4 -3 -10 3 -5 0 -18 -7 -29 -10 -17 -9 -24 9
-43 19 -21 20 -25 8 -48 -8 -14 -14 -33 -15 -42 0 -11 -10 -18 -32 -20 -30 -3
-33 -6 -30 -32 3 -22 0 -27 -12 -23 -9 4 -16 2 -16 -4 0 -6 10 -9 23 -7 16 2
21 9 19 26 -3 17 2 22 17 22 19 0 21 -6 21 -59 0 -43 -5 -65 -20 -84 -26 -32
-25 -42 5 -124 13 -37 22 -69 19 -72 -7 -7 -65 26 -106 59 -106 88 -129 276
-47 389 45 63 101 99 170 110 4 1 17 -8 30 -18z m182 8 c71 -38 128 -110 152
-194 16 -52 16 -68 6 -120 -14 -66 -44 -126 -87 -169 -31 -30 -104 -72 -104
-59 0 5 9 32 20 61 24 63 25 100 4 130 -9 13 -18 49 -21 81 -5 53 -4 58 16 64
19 5 22 2 19 -21 -2 -22 2 -28 20 -30 12 -2 22 1 22 7 0 6 -6 10 -12 8 -8 -1
-12 8 -10 26 3 24 0 27 -27 27 -26 0 -33 6 -49 43 -19 42 -19 42 2 65 17 20
18 26 8 43 -10 16 -10 24 -1 35 14 17 15 17 42 3z m-459 -330 c15 -93 108
-210 189 -240 26 -9 37 -19 37 -33 0 -19 0 -19 14 -1 12 17 18 18 40 7 14 -6
26 -18 26 -27 0 -25 -64 -18 -136 15 -116 52 -195 155 -219 283 -7 35 -6 37
18 37 21 0 25 -6 31 -41z m693 -4 c-9 -65 -52 -148 -101 -197 -50 -51 -144
-99 -203 -106 -38 -4 -43 -2 -43 16 0 11 7 23 16 26 28 11 54 6 54 -9 0 -8 5
-15 10 -15 6 0 10 9 10 19 0 13 18 29 54 49 79 45 131 117 156 220 8 33 15 42
32 42 19 0 20 -4 15 -45z m-448 -104 c25 -82 68 -129 102 -110 29 15 57 66 70
126 7 29 15 53 20 53 20 0 17 -42 -8 -111 l-27 -78 -51 -6 c-54 -7 -105 6
-105 27 0 7 -11 40 -24 72 -18 44 -22 65 -15 78 5 10 11 18 13 18 2 0 14 -31
25 -69z"/>
<path d="M1128 547 c-59 -133 -110 -250 -114 -260 -6 -16 1 -18 90 -15 l97 3
47 107 47 108 61 0 60 0 22 45 c12 25 22 48 22 50 0 3 -27 5 -59 5 l-59 0 21
50 21 50 796 0 796 0 22 45 c12 25 22 48 22 50 0 3 -402 5 -892 5 l-893 0
-107 -243z"/>
<path d="M2841 590 c-18 -4 -44 -14 -57 -21 -28 -15 -67 -90 -58 -112 3 -9 25
-28 49 -42 54 -31 58 -37 44 -69 -14 -30 -55 -37 -46 -8 13 47 13 47 -31 50
-51 4 -68 -8 -78 -51 -10 -47 21 -67 105 -67 104 0 171 46 174 121 2 29 -4 37
-46 65 -62 41 -60 39 -47 63 16 31 44 28 36 -4 -6 -24 -5 -25 43 -25 50 0 63
8 75 47 5 16 1 26 -17 37 -29 20 -101 28 -146 16z"/>
<path d="M1457 439 c-37 -83 -67 -155 -67 -160 0 -6 24 -9 56 -7 l55 3 28 63
c33 74 48 92 56 70 3 -8 -5 -41 -19 -73 -15 -32 -26 -59 -26 -61 0 -2 24 -4
53 -4 l54 0 27 63 c30 72 32 83 10 95 -13 7 -11 11 14 21 32 14 69 79 59 106
-10 25 -52 35 -146 35 l-88 0 -66 -151z m185 75 c-4 -24 -39 -60 -49 -51 -10
11 26 79 40 74 6 -2 11 -13 9 -23z"/>
<path d="M1767 438 c-37 -84 -67 -156 -67 -160 0 -5 44 -8 98 -8 96 0 99 1
110 25 16 35 16 35 -21 35 -44 0 -49 7 -31 41 12 23 21 29 49 29 28 0 37 5 50
30 l16 30 -36 0 c-33 0 -36 2 -29 23 11 37 25 47 64 47 30 0 39 5 48 25 7 14
12 28 12 30 0 3 -44 5 -98 5 l-97 0 -68 -152z"/>
<path d="M2008 437 c-38 -84 -68 -155 -68 -160 0 -4 25 -7 55 -7 l55 0 24 53
c45 97 116 260 116 263 0 2 -26 4 -57 4 l-58 0 -67 -153z"/>
<path d="M2212 565 c-16 -35 -16 -35 18 -35 17 0 30 -3 30 -6 0 -3 -22 -57
-50 -120 -27 -63 -50 -119 -50 -124 0 -6 24 -10 54 -10 l53 0 53 118 c29 64
57 123 63 130 5 6 24 12 41 12 26 0 34 5 43 30 l11 30 -127 0 c-127 0 -128 0
-139 -25z"/>
<path d="M2502 563 c-15 -23 -145 -229 -176 -280 -5 -10 8 -13 53 -13 57 0 61
2 76 30 10 19 23 30 37 30 17 0 20 -4 15 -30 l-6 -30 54 0 c29 0 57 5 60 11 4
5 20 70 36 142 16 73 32 140 35 150 5 15 -3 17 -80 17 -81 0 -85 -1 -104 -27z
m140 -101 c8 -8 4 -14 -16 -21 -29 -12 -47 -42 -28 -49 7 -2 12 -8 12 -14 0
-6 -11 -3 -25 6 -31 20 -44 20 -66 0 -13 -12 -22 -13 -38 -5 -33 18 -54 14
-48 -9 3 -11 1 -18 -4 -14 -14 8 -11 34 6 40 8 4 15 14 15 24 0 10 12 28 27
40 22 17 37 20 91 17 35 -3 69 -10 74 -15z"/>
<path d="M1000 159 l0 -72 42 6 c46 6 78 35 78 69 0 32 -45 68 -85 68 l-35 0
0 -71z m80 0 c0 -24 -4 -29 -25 -29 -21 0 -25 5 -25 28 0 35 6 41 31 35 13 -4
19 -14 19 -34z"/>
<path d="M1190 160 l0 -71 48 3 c34 2 47 7 47 18 0 10 -12 16 -32 18 -41 4
-43 22 -3 22 20 0 30 5 30 15 0 10 -10 15 -31 15 -17 0 -28 4 -24 10 3 6 20
10 36 10 50 0 28 25 -24 28 l-47 3 0 -71z"/>
<path d="M1354 216 c-3 -7 -4 -38 -2 -67 3 -48 6 -54 26 -57 61 -9 102 36 88
93 -10 39 -99 64 -112 31z m84 -59 c-2 -14 -11 -23 -25 -25 -19 -3 -23 1 -23
26 0 36 8 44 32 31 12 -6 18 -19 16 -32z"/>
<path d="M1544 216 c-3 -7 -4 -38 -2 -67 l3 -54 48 -3 c42 -3 47 -1 47 17 0
17 -6 21 -36 21 -21 0 -33 4 -29 10 3 6 20 10 36 10 41 0 33 24 -9 28 -40 4
-32 22 9 22 19 0 29 5 29 15 0 20 -88 21 -96 1z"/>
<path d="M1707 223 c-12 -11 -8 -21 12 -26 16 -4 20 -15 23 -53 4 -68 28 -71
28 -4 0 43 3 53 20 57 11 3 20 12 20 19 0 10 -14 14 -48 14 -27 0 -52 -3 -55
-7z"/>
<path d="M1880 160 c0 -56 3 -70 15 -70 12 0 15 14 15 70 0 56 -3 70 -15 70
-12 0 -15 -14 -15 -70z"/>
<path d="M1980 215 c0 -9 9 -15 25 -15 14 0 25 -5 25 -11 0 -6 -11 -25 -25
-43 -37 -49 -33 -58 28 -54 38 2 52 7 52 18 0 9 -11 16 -28 18 l-28 3 31 39
c16 21 30 43 30 49 0 7 -21 11 -55 11 -42 0 -55 -3 -55 -15z"/>
<path d="M2177 175 c-15 -31 -27 -62 -27 -70 0 -19 19 -19 26 0 8 20 63 20 70
0 6 -15 34 -21 34 -7 0 20 -54 132 -64 132 -7 0 -24 -25 -39 -55z"/>
<path d="M2344 216 c-3 -7 -4 -38 -2 -67 l3 -54 38 1 c21 1 46 9 57 19 20 18
26 60 12 81 -21 31 -98 46 -108 20z m84 -59 c-2 -14 -11 -23 -25 -25 -19 -3
-23 1 -23 26 0 36 8 44 32 31 12 -6 18 -19 16 -32z"/>
<path d="M2550 210 c-39 -39 -12 -120 39 -120 32 0 71 39 71 71 0 36 -31 69
-65 69 -14 0 -34 -9 -45 -20z m68 -22 c30 -30 -11 -85 -44 -57 -25 21 -11 69
21 69 6 0 16 -5 23 -12z"/>
<path d="M2730 160 c0 -56 3 -70 15 -70 9 0 15 9 15 25 0 14 4 25 8 25 5 0 19
-11 32 -25 35 -38 69 -32 35 5 -13 15 -14 22 -3 45 11 25 10 29 -11 46 -13 11
-38 19 -57 19 l-34 0 0 -70z m64 34 c20 -8 11 -24 -15 -24 -19 0 -25 11 -12
23 8 8 8 8 27 1z"/>
<path d="M2927 175 c-15 -31 -27 -62 -27 -70 0 -19 19 -19 26 0 8 20 63 20 70
0 7 -18 34 -20 33 -2 -1 20 -53 121 -64 124 -6 2 -23 -22 -38 -52z"/>
</g>
</svg>
